<svg width="20" height="20" viewBox="0 0 20 20" fill="none" xmlns="http://www.w3.org/2000/svg">
<path d="M10 8.82812C6.44605 8.82812 3.55469 11.7195 3.55469 15.2734C3.55469 16.8888 4.86902 18.2031 6.48438 18.2031H13.5156C15.131 18.2031 16.4453 16.8888 16.4453 15.2734C16.4453 11.7195 13.5539 8.82812 10 8.82812ZM11.7578 14.6875H10.5859V15.8594H9.41406V14.6875H8.24219V13.5156H9.41406V12.3438H10.5859V13.5156H11.7578V14.6875Z" fill="#E25E52"/>
<path d="M2.34375 11.7578C1.05113 11.7578 0 10.4435 0 8.82812C0 7.21277 1.05113 5.89844 2.34375 5.89844C3.63637 5.89844 4.6875 7.21277 4.6875 8.82812C4.6875 10.4435 3.63637 11.7578 2.34375 11.7578Z" fill="#E25E52"/>
<path d="M7.07031 7.65625C5.7777 7.65625 4.72656 6.34191 4.72656 4.72656C4.72656 3.11121 5.7777 1.79688 7.07031 1.79688C8.36293 1.79688 9.41406 3.11121 9.41406 4.72656C9.41406 6.34191 8.36293 7.65625 7.07031 7.65625Z" fill="#E25E52"/>
<path d="M12.9297 7.65625C11.6371 7.65625 10.5859 6.34191 10.5859 4.72656C10.5859 3.11121 11.6371 1.79688 12.9297 1.79688C14.2223 1.79688 15.2734 3.11121 15.2734 4.72656C15.2734 6.34191 14.2223 7.65625 12.9297 7.65625Z" fill="#E25E52"/>
<path d="M17.6562 11.7578C16.3636 11.7578 15.3125 10.4435 15.3125 8.82812C15.3125 7.21277 16.3636 5.89844 17.6562 5.89844C18.9489 5.89844 20 7.21277 20 8.82812C20 10.4435 18.9489 11.7578 17.6562 11.7578Z" fill="#E25E52"/>
</svg>
